# Blender v2.79 (sub 0) OBJ File: 'step.blend'
# www.blender.org
mtllib nosing.halfround.mtl
o c_Nosing.HalfRound
v -45.000000 -0.000003 15.243756
v 45.000000 0.000003 15.243756
v -45.000000 0.234452 16.118757
v 45.000000 0.234459 16.118757
v -45.000000 0.874996 16.759300
v 45.000000 0.875003 16.759300
v -45.000000 1.749996 16.993755
v 45.000000 1.750003 16.993755
v -45.000000 2.624996 16.759300
v 45.000000 2.625003 16.759300
v -45.000000 3.265541 16.118757
v 45.000000 3.265547 16.118757
v -45.000000 3.499997 15.243757
v 45.000000 3.500003 15.243757
v -45.000000 -0.000003 15.000000
v 45.000000 0.000003 15.000000
v -45.000000 3.499997 15.000001
v 45.000000 3.500003 15.000001
vn 1.0000 -0.0000 0.0000
vn -1.0000 0.0000 0.0000
vn 0.6789 -0.7280 0.0958
vn -0.6532 -0.6557 0.3786
vn -0.6789 -0.7280 0.0958
vn 0.6532 -0.6557 0.3786
vn -0.6532 -0.3786 0.6557
vn 0.6532 -0.3786 0.6557
vn -0.6532 0.0000 0.7571
vn 0.6532 0.0000 0.7571
vn -0.6532 0.3786 0.6557
vn 0.6532 0.3786 0.6557
vn -0.6532 0.6557 0.3786
vn 0.6789 0.7280 0.0958
vn -0.6789 0.7280 0.0958
vn -0.7071 0.7071 0.0000
vn 0.7071 -0.7071 0.0000
vn 0.6532 0.6557 0.3786
vn 0.7071 0.7071 0.0000
vn -0.7071 -0.7071 0.0000
usemtl Wood
s off
f 2//1 12//1 8//1
f 3//2 7//2 11//2
f 2//1 18//1 14//1
f 13//2 15//2 1//2
f 6//1 4//1 2//1
f 2//1 14//1 12//1
f 12//1 10//1 8//1
f 8//1 6//1 2//1
f 13//2 1//2 11//2
f 1//2 3//2 11//2
f 3//2 5//2 7//2
f 7//2 9//2 11//2
f 2//1 16//1 18//1
f 13//2 17//2 15//2
s 1
f 2//3 3//4 1//5
f 4//6 5//7 3//4
f 6//8 7//9 5//7
f 8//10 9//11 7//9
f 10//12 11//13 9//11
f 11//13 14//14 13//15
f 14//14 17//16 13//15
f 1//5 16//17 2//3
f 2//3 4//6 3//4
f 4//6 6//8 5//7
f 6//8 8//10 7//9
f 8//10 10//12 9//11
f 10//12 12//18 11//13
f 11//13 12//18 14//14
f 14//14 18//19 17//16
f 1//5 15//20 16//17
